<svg width="50" height="50" viewBox="0 0 50 50" fill="none" xmlns="http://www.w3.org/2000/svg">
<path d="M32.9981 35.0412L35.2846 31.3311L39.4107 29.9238L39.8679 25.5901L42.9723 22.534L41.4963 18.4318L42.9723 14.3296L39.868 11.2734L39.4108 6.93984L35.2847 5.53262L32.9982 1.82236L28.6735 2.34453L24.9998 0L21.3261 2.34473L17.0015 1.82256L14.715 5.53271L10.5889 6.93994L10.1317 11.2735L7.02734 14.3297L8.50332 18.4319L7.02734 22.5342L10.1316 25.5902L10.5888 29.9239L14.7149 31.3311L17.0014 35.0413L21.3261 34.5192L24.9998 36.8639L28.6735 34.5192L32.9981 35.0412ZM12.3603 18.4319C12.3603 11.4625 18.0304 5.79238 24.9998 5.79238C31.9692 5.79238 37.6394 11.4625 37.6394 18.4319C37.6394 25.4014 31.9692 31.0715 24.9998 31.0715C18.0304 31.0715 12.3603 25.4014 12.3603 18.4319Z" fill="#F37F0C"/>
<path d="M25.0009 8.72266C19.6479 8.72266 15.2929 13.0776 15.2929 18.4307C15.2929 23.7837 19.6479 28.1387 25.0009 28.1387C30.3539 28.1387 34.7089 23.7837 34.7089 18.4307C34.7089 13.0776 30.3539 8.72266 25.0009 8.72266ZM20.6355 37.5542L15.491 38.1753L12.7729 33.7645L11.8489 33.4494L7.86328 45.907L15.0386 45.5124L20.6523 49.9987L23.9559 39.6733L20.6355 37.5542ZM37.2288 33.7645L34.5106 38.1753L29.3662 37.5542L26.0459 39.6733L29.3494 49.9987L34.9632 45.5124L42.1385 45.907L38.1528 33.4494L37.2288 33.7645Z" fill="#F37F0C"/>
</svg>
