<svg width="356" height="200" viewBox="0 0 356 200" fill="none" xmlns="http://www.w3.org/2000/svg">
<path d="M178.434 20C178.434 20 159.044 37.8739 178.434 57.7838C178.434 57.7838 198.909 42.0086 178.434 20Z" fill="#F37F0C"/>
<path d="M180.518 91.5272C180.518 91.5272 178.732 79.5684 182.559 68.8817C186.386 58.1951 191.659 51.4099 198.462 46.9997C205.266 42.5893 212.58 40.5537 215.981 40.4688C215.981 40.4688 215.726 49.7557 210.283 57.7497C204.84 65.7435 195.911 72.7834 195.911 72.7834C195.911 72.7834 182.644 85.166 180.518 91.5272Z" fill="#174B71"/>
<path d="M176.647 91.5272C176.647 91.5272 178.433 79.5684 174.606 68.8817C170.779 58.1951 165.506 51.4099 158.703 46.9997C151.899 42.5893 144.586 40.5537 141.184 40.4688C141.184 40.4688 141.439 49.7557 146.881 57.7497C152.324 65.7435 161.254 72.7834 161.254 72.7834C161.254 72.7834 174.521 85.166 176.647 91.5272H176.647Z" fill="#174B71"/>
<path d="M109.663 106.587C109.663 106.587 108.851 107.5 108.141 109.192C107.435 110.882 99.2378 130.052 99.2378 130.052L94.1116 118.326C91.4968 123.957 88.6388 130.052 88.6388 130.052L79.7687 109.192C79.7687 109.192 79.309 108.029 78 106.617H82.6665C82.6665 106.617 81.8537 107.252 82.6665 109.192C83.4793 111.128 89.4516 126.352 89.4516 126.352L93.6319 117.23L90.3344 109.683C90.3344 109.683 89.6283 107.859 88.1793 106.587H92.1697C92.1697 106.587 92.2163 107.78 92.606 108.667L93.3454 110.161C93.925 111.517 95.044 114.151 95.044 114.151L97.1291 109.603C97.1324 109.593 97.1391 109.587 97.1425 109.576C97.1859 109.487 97.2257 109.401 97.2624 109.314C97.2658 109.307 97.2691 109.301 97.2725 109.291C97.5588 108.593 97.5756 108.105 97.5756 108.002V107.982V106.617C97.5756 106.547 99.7673 106.617 99.7673 106.617C99.7673 106.617 98.8148 107.71 98.3183 109.085C98.1519 109.55 96.9895 112.104 95.5237 115.277L100.087 125.999L107.505 108.593C107.505 108.593 108.108 107.049 107.648 106.587H109.663V106.587Z" fill="#393C41"/>
<path d="M114.144 120.493L118.039 110.025L117.876 110.463L122.202 120.492H114.144V120.493ZM124.912 129.582L129.789 129.492C129.789 129.492 127.281 127.534 126.802 124.837L119.03 105.758L118.883 106.396L110.621 127.534C110.621 127.534 110.17 128.975 109.229 129.582H111.72C111.72 129.582 111.268 128.155 111.811 126.833C112.295 125.66 113.513 122.234 113.776 121.494H122.628L124.842 126.689C124.842 126.689 125.991 128.97 124.912 129.582H124.912Z" fill="#393C41"/>
<path d="M135.63 106.492C135.63 106.492 136.761 106.845 136.655 109.17C136.655 109.17 136.846 127.071 136.662 127.424C136.478 127.776 136.761 128.948 135.383 129.578H150.188L150.86 127.001C150.86 127.001 150.506 128.34 147.185 128.728L139.446 128.834V109.029C139.446 109.029 139.658 106.545 140.639 106.492C141.619 106.439 135.63 106.492 135.63 106.492H135.63Z" fill="#393C41"/>
<path d="M166.656 128.853C161.29 128.716 157.681 124.114 157.398 117.824C156.969 112.092 161.435 106.742 166.638 106.952C172.521 107.19 176.485 111.815 176.443 118C176.487 126.246 172.133 128.994 166.656 128.853H166.656ZM166.373 106.213C166.373 106.213 155.614 105.965 154.766 118.008C154.766 118.008 154.03 128.836 166.907 130.052C166.907 130.052 179.624 130.197 179.571 117.65C179.518 105.102 166.373 106.213 166.373 106.213Z" fill="#393C41"/>
<path d="M204.981 108.606V125.074L204.989 125.085V129.709L187.845 109.012C187.848 110.861 187.867 126.184 187.845 127.476C187.818 128.85 189.01 129.59 189.01 129.59H185.725C187.128 128.944 187.156 127.437 187.156 127.437V108.181L185.725 106.453H189.647L204.287 124.233C204.284 119.228 204.273 109.578 204.292 108.568C204.32 107.193 203.127 106.453 203.127 106.453H206.413C205.009 107.099 204.981 108.606 204.981 108.606L204.981 108.606Z" fill="#393C41"/>
<path d="M244.263 108.275C244.263 109.46 244.279 118.113 244.285 121.505C244.288 123.018 243.919 124.514 243.169 125.829C242.067 127.76 239.949 129.929 235.992 129.974C228.837 130.054 227.141 125.074 226.878 121.472C226.875 121.229 226.875 120.984 226.872 120.735V120.729C226.827 115.225 226.728 108.689 226.728 108.689C226.728 108.689 226.728 107.107 225.596 106.453H230.683C230.683 106.453 229.377 107.033 229.482 108.512V121.42C229.482 121.42 229.156 128.547 235.303 128.917C239.532 129.171 241.466 127.227 242.444 125.291C243.028 124.133 243.308 122.845 243.322 121.548L243.463 108.541C243.465 108.355 243.443 108.171 243.393 107.991C243.269 107.541 242.964 106.734 242.328 106.453H245.533C245.533 106.453 244.263 106.796 244.263 108.275V108.275Z" fill="#393C41"/>
<path d="M226.873 121.479C226.851 121.189 226.851 120.944 226.867 120.742C226.87 120.991 226.87 121.237 226.873 121.479Z" fill="#393C41"/>
<path d="M252.987 126.016C252.987 126.016 252.981 126.072 252.98 126.212C252.976 126.744 252.853 128.334 251.479 129.428L254.535 129.287C254.535 129.287 253.669 129.075 253.687 125.992C253.705 122.909 255.136 109.641 255.136 109.641L263.439 129.586L271.955 109.817L273.652 128.259C273.678 128.535 273.619 128.812 273.485 129.055C273.378 129.253 273.236 129.47 273.086 129.587H277.751C277.751 129.587 276.584 129.974 276.301 125.605L274.782 109.113C274.782 109.113 274.146 106.683 276.266 106.453H272.591L264.614 125.358L256.761 106.453H252.945C252.945 106.453 254.465 106.611 254.253 109.113C254.041 111.615 252.987 126.016 252.987 126.016H252.987Z" fill="#393C41"/>
<path d="M218.173 129.149C218.456 129.408 218.812 129.635 219.241 129.709H212.776C213.205 129.635 213.561 129.408 213.847 129.149C214.35 128.685 214.622 128.022 214.622 127.338V108.512C214.727 107.033 212.695 106.453 212.695 106.453H219.321C219.321 106.453 217.29 107.033 217.395 108.512V127.338C217.395 128.022 217.666 128.685 218.173 129.149H218.173Z" fill="#393C41"/>
<path d="M212.278 139.817C212.278 139.817 213.264 140.125 213.172 142.153C213.172 142.153 213.338 157.765 213.178 158.073C213.017 158.38 213.264 159.402 212.062 159.951H224.974L225.56 157.704C225.56 157.704 225.252 158.872 222.355 159.21L215.606 159.302V142.03C215.606 142.03 215.791 139.864 216.646 139.817C217.502 139.771 212.278 139.817 212.278 139.817Z" fill="#393C41"/>
<path d="M128.876 141.98H128.538C128.538 141.98 128.363 140.745 126.205 140.745H121.945L121.964 158.694C121.964 158.694 121.964 159.755 123.167 159.937L117.648 160.072C117.648 160.072 119.133 159.602 119.31 158.724C119.488 157.845 119.205 142 119.205 142L119.183 140.745H114.994C112.837 140.745 112.659 141.98 112.659 141.98H112.324L112.659 139.812L120.598 139.688L128.538 139.812L128.876 141.98L128.876 141.98Z" fill="#393C41"/>
<path d="M193.26 141.98H192.922C192.922 141.98 192.748 140.745 190.59 140.745H186.33L186.349 158.694C186.349 158.694 186.349 159.755 187.551 159.937L182.033 160.072C182.033 160.072 183.518 159.602 183.695 158.724C183.873 157.845 183.59 142 183.59 142L183.568 140.745H179.379C177.222 140.745 177.044 141.98 177.044 141.98H176.709L177.044 139.812L184.983 139.688L192.922 139.812L193.26 141.98V141.98Z" fill="#393C41"/>
<path d="M166.613 157.591C166.613 157.591 164.541 154.392 162.092 150.715C159.435 154.616 156.959 158.263 156.959 158.263C156.959 158.263 156.18 159.072 156.532 159.848H154.059C154.059 159.848 155.261 159.53 156.674 157.133L161.615 150.005C158.607 145.508 155.203 140.574 154.377 139.994H158.762C158.762 139.994 157.593 140.806 158.762 142.038C158.762 142.038 160.616 144.8 162.907 148.146L167.214 141.933C167.214 141.933 168.133 140.452 167.425 139.922H170.042C170.042 139.922 169.123 140.557 168.45 141.439C168.15 141.831 165.845 145.204 163.375 148.828C166.729 153.715 170.793 159.494 171.422 159.779H167.142C167.142 159.779 167.993 159.494 166.613 157.591H166.613Z" fill="#393C41"/>
<path d="M243.422 157.916L243.079 159.8L234.663 159.888V159.932H232.114V159.916L230.594 159.932C231.361 159.584 232.114 158.988 232.114 158.988V140.746C232.114 140.746 231.361 140.152 230.594 139.805L243.079 139.935L243.422 141.821C243.422 141.821 243.153 141.244 242.317 140.874C242.12 140.786 241.907 140.746 241.691 140.746H234.663V148.982L240.295 148.962C241.284 148.901 241.345 148.189 241.345 148.189H241.752V150.893H241.477C241.284 150.225 240.682 150.048 240.524 150.031C240.383 150.015 235.823 150.026 234.663 150.031V158.988H241.691C241.906 158.988 242.12 158.948 242.317 158.863C243.153 158.49 243.422 157.915 243.422 157.915L243.422 157.916Z" fill="#393C41"/>
<path d="M147.326 157.916L146.983 159.799L138.567 159.888V159.932H136.019V159.916L134.498 159.932C135.265 159.584 136.019 158.988 136.019 158.988V140.746C136.019 140.746 135.265 140.152 134.498 139.805L146.983 139.934L147.326 141.821C147.326 141.821 147.057 141.244 146.221 140.873C146.024 140.785 145.811 140.746 145.595 140.746H138.567V148.981L144.199 148.962C145.188 148.901 145.249 148.189 145.249 148.189H145.656V150.893H145.382C145.188 150.225 144.587 150.048 144.429 150.031C144.287 150.015 139.728 150.026 138.567 150.031V158.988H145.595C145.811 158.988 146.024 158.948 146.221 158.863C147.057 158.49 147.326 157.916 147.326 157.916L147.326 157.916Z" fill="#393C41"/>
<path d="M203.851 159.731C204.127 159.956 204.475 160.152 204.894 160.217H198.58C198.999 160.152 199.348 159.956 199.626 159.731C200.118 159.329 200.383 158.755 200.383 158.162V141.847C200.486 140.565 198.502 140.062 198.502 140.062H204.973C204.973 140.062 202.989 140.565 203.092 141.847V158.162C203.092 158.755 203.357 159.329 203.851 159.731H203.851Z" fill="#393C41"/>
<path d="M124.526 176.198V179.448H125.595C126.122 179.448 126.553 179.295 126.888 178.99C127.222 178.685 127.39 178.286 127.39 177.796C127.39 177.207 127.183 176.784 126.77 176.528C126.414 176.308 125.883 176.198 125.178 176.198H124.526L124.526 176.198ZM124.526 172.98V175.783H124.995C125.299 175.783 125.551 175.77 125.75 175.745C125.949 175.721 126.151 175.662 126.357 175.569C126.903 175.328 127.176 174.898 127.176 174.28C127.176 173.804 127.024 173.469 126.719 173.273C126.413 173.078 125.963 172.98 125.367 172.98H124.526ZM123.586 179.842V172.586H125.734C126.553 172.586 127.155 172.696 127.539 172.916C127.924 173.136 128.116 173.517 128.116 174.057C128.116 174.532 127.958 174.936 127.641 175.266C127.324 175.596 126.92 175.822 126.428 175.942C126.92 175.942 127.347 176.067 127.71 176.316C128.159 176.621 128.384 177.054 128.384 177.616C128.384 178.376 128.063 178.976 127.422 179.416C127.144 179.608 126.784 179.733 126.343 179.789C126.072 179.825 125.68 179.843 125.167 179.843H123.586L123.586 179.842Z" fill="#6C7183"/>
<path d="M138.502 176.162C138.502 175.68 138.456 175.253 138.363 174.88C138.271 174.508 138.093 174.155 137.829 173.822C137.565 173.488 137.24 173.233 136.852 173.056C136.463 172.878 136.048 172.79 135.607 172.79C134.673 172.79 133.938 173.114 133.4 173.763C132.862 174.412 132.593 175.279 132.593 176.364C132.593 177.407 132.878 178.226 133.448 178.822C133.982 179.375 134.67 179.652 135.51 179.652C136.515 179.652 137.294 179.219 137.85 178.354C138.284 177.68 138.502 176.949 138.502 176.162L138.502 176.162ZM135.479 180.003C134.289 180.003 133.336 179.661 132.62 178.977C131.904 178.292 131.547 177.378 131.547 176.236C131.547 175.094 131.928 174.169 132.69 173.459C133.423 172.778 134.36 172.438 135.5 172.438C136.611 172.438 137.537 172.725 138.278 173.3C139.126 173.959 139.55 174.885 139.55 176.077C139.55 177.254 139.172 178.203 138.417 178.924C137.662 179.643 136.682 180.003 135.479 180.003Z" fill="#6C7183"/>
<path d="M149.404 172.588V179.887L149.083 179.888L148.523 179.232L143.912 174.133H143.805V179.877L143.506 179.845L143.207 179.887V172.588L143.626 172.586L148.693 178.08L148.806 178.076V172.588L149.105 172.62L149.404 172.588Z" fill="#6C7183"/>
<path d="M154.602 173.012V179.363C154.816 179.363 155.101 179.368 155.457 179.379C155.813 179.389 155.995 179.395 156.002 179.395C156.408 179.395 156.74 179.377 156.996 179.342C157.253 179.306 157.498 179.228 157.733 179.108C158.274 178.838 158.673 178.418 158.93 177.85C159.158 177.346 159.272 176.746 159.272 176.049C159.272 174.927 159.021 174.133 158.518 173.668C158.016 173.203 157.16 172.97 155.949 172.97C155.799 172.97 155.546 172.977 155.19 172.991C154.834 173.006 154.638 173.013 154.602 173.013V173.012ZM153.662 179.842V172.586H156.088H156.814C157.484 172.586 157.993 172.643 158.342 172.756C158.634 172.849 158.912 173.005 159.175 173.225C159.56 173.538 159.847 173.929 160.036 174.397C160.224 174.866 160.319 175.363 160.319 175.889C160.319 176.592 160.194 177.214 159.945 177.754C159.724 178.23 159.4 178.656 158.973 179.033C158.666 179.295 158.283 179.496 157.824 179.635C157.365 179.773 156.672 179.842 155.746 179.842H153.662Z" fill="#6C7183"/>
<path d="M175.548 176.162C175.548 175.68 175.501 175.253 175.409 174.88C175.316 174.508 175.138 174.155 174.874 173.822C174.61 173.488 174.285 173.233 173.897 173.056C173.508 172.878 173.094 172.79 172.652 172.79C171.719 172.79 170.983 173.114 170.446 173.763C169.908 174.412 169.639 175.279 169.639 176.364C169.639 177.407 169.924 178.226 170.494 178.822C171.028 179.375 171.715 179.652 172.556 179.652C173.56 179.652 174.34 179.219 174.896 178.354C175.33 177.68 175.548 176.949 175.548 176.162V176.162ZM172.524 180.003C171.334 180.003 170.382 179.661 169.665 178.977C168.95 178.292 168.592 177.378 168.592 176.236C168.592 175.094 168.973 174.169 169.735 173.459C170.468 172.778 171.405 172.438 172.545 172.438C173.656 172.438 174.582 172.725 175.323 173.3C176.171 173.959 176.595 174.885 176.595 176.077C176.595 177.254 176.217 178.203 175.462 178.924C174.707 179.643 173.727 180.003 172.523 180.003H172.524Z" fill="#6C7183"/>
<path d="M180.123 179.885V172.586H183.916L183.884 172.893L183.916 173.204C183.702 173.162 183.528 173.131 183.393 173.114C183.257 173.096 183.111 173.087 182.954 173.087H181.886H181.063V175.762H182.719C182.855 175.762 183.034 175.754 183.259 175.74C183.483 175.726 183.62 175.719 183.671 175.719L183.638 175.996L183.671 176.294C183.542 176.294 183.364 176.283 183.136 176.262C182.908 176.241 182.769 176.23 182.72 176.23H181.063V179.875L180.593 179.842L180.123 179.885Z" fill="#6C7183"/>
<path d="M195.257 173.098V179.885L194.787 179.864L194.317 179.895V173.097C193.761 173.097 193.366 173.104 193.13 173.119C192.896 173.133 192.511 173.168 191.977 173.225L192.008 172.906L191.977 172.586H197.49L197.457 172.906L197.49 173.225C197.226 173.197 196.893 173.169 196.491 173.14C196.088 173.112 195.677 173.097 195.257 173.097L195.257 173.098Z" fill="#6C7183"/>
<path d="M201.739 172.959V175.91H201.975H202.286C202.443 175.91 202.59 175.907 202.726 175.9C202.862 175.893 202.994 175.875 203.122 175.847C203.523 175.762 203.852 175.587 204.109 175.321C204.367 175.056 204.495 174.725 204.495 174.329C204.495 173.564 204.102 173.118 203.316 172.991C203.165 172.97 202.98 172.959 202.758 172.959H202.232H201.739H201.739ZM200.799 179.885V172.586H203.064C203.876 172.586 204.475 172.719 204.859 172.986C205.244 173.252 205.436 173.659 205.436 174.206C205.436 174.781 205.208 175.25 204.752 175.612C204.375 175.91 203.872 176.117 203.246 176.23L205.441 179.007L205.962 179.607L206.162 179.874L205.545 179.843L204.938 179.882L204.259 178.948L203.005 177.313L202.144 176.306L201.739 176.305V179.874L201.269 179.843L200.799 179.885L200.799 179.885Z" fill="#6C7183"/>
<path d="M210.448 172.586V176.661C210.448 177.64 210.612 178.345 210.94 178.778C211.303 179.26 211.926 179.501 212.809 179.501C213.615 179.501 214.209 179.228 214.594 178.682C214.943 178.185 215.118 177.476 215.118 176.554V172.586L215.417 172.618L215.716 172.586V176.821C215.716 177.85 215.436 178.635 214.877 179.178C214.318 179.721 213.558 179.992 212.596 179.992C211.598 179.992 210.826 179.744 210.277 179.247C209.978 178.977 209.768 178.609 209.647 178.141C209.554 177.786 209.508 177.353 209.508 176.842V172.586L209.978 172.618L210.448 172.586L210.448 172.586Z" fill="#6C7183"/>
<path d="M219.619 178.447H219.726C219.956 178.814 220.192 179.08 220.436 179.249C220.723 179.447 221.067 179.545 221.469 179.545C221.899 179.545 222.255 179.394 222.539 179.092C222.822 178.792 222.964 178.424 222.964 177.991C222.964 177.452 222.675 177.034 222.098 176.736C221.557 176.502 221.019 176.265 220.485 176.023C219.908 175.676 219.62 175.161 219.62 174.481C219.62 173.828 219.854 173.317 220.324 172.948C220.759 172.608 221.315 172.438 221.992 172.438C222.276 172.438 222.554 172.48 222.825 172.566C223.096 172.651 223.327 172.779 223.52 172.949C223.469 173.063 223.427 173.169 223.391 173.269C223.384 173.29 223.331 173.475 223.231 173.823H223.124C223.01 173.525 222.841 173.295 222.616 173.136C222.392 172.976 222.12 172.896 221.799 172.896C221.421 172.896 221.103 173.011 220.843 173.242C220.583 173.472 220.453 173.772 220.453 174.14C220.453 174.679 220.741 175.098 221.318 175.396C221.859 175.637 222.401 175.875 222.942 176.109C223.526 176.449 223.818 176.939 223.818 177.577C223.818 178.322 223.562 178.918 223.049 179.365C222.565 179.79 221.941 180.003 221.179 180.003C220.887 180.003 220.567 179.946 220.218 179.834C219.868 179.721 219.609 179.572 219.438 179.389C219.489 179.234 219.525 179.091 219.547 178.96C219.57 178.83 219.594 178.659 219.619 178.447V178.447Z" fill="#6C7183"/>
<path d="M229.931 173.098V179.885L229.461 179.864L228.99 179.895V173.097C228.435 173.097 228.039 173.104 227.804 173.119C227.569 173.133 227.185 173.168 226.65 173.225L226.682 172.906L226.65 172.586H232.164L232.131 172.906L232.164 173.225C231.9 173.197 231.567 173.169 231.165 173.14C230.762 173.112 230.351 173.097 229.931 173.097V173.098Z" fill="#6C7183"/>
</svg>
