<svg width="1524" height="1221" viewBox="0 0 1524 1221" fill="none" xmlns="http://www.w3.org/2000/svg">
<path d="M766.266 0C766.266 0 618.328 136.367 766.266 288.268C766.266 288.268 922.474 167.913 766.266 0Z" fill="#F37F0C"/>
<path d="M782.161 545.709C782.161 545.709 768.537 454.471 797.734 372.938C826.931 291.405 867.16 239.638 919.07 205.991C970.976 172.343 1026.78 156.812 1052.73 156.164C1052.73 156.164 1050.78 227.018 1009.26 288.008C967.73 348.995 899.603 402.706 899.603 402.706C899.603 402.706 798.384 497.178 782.161 545.709Z" fill="#174B71"/>
<path d="M752.63 545.709C752.63 545.709 766.254 454.471 737.059 372.938C707.86 291.405 667.631 239.638 615.723 205.991C563.815 172.343 508.015 156.812 482.061 156.164C482.061 156.164 484.007 227.018 525.532 288.008C567.059 348.995 635.186 402.706 635.186 402.706C635.186 402.706 736.408 497.178 752.628 545.709H752.63Z" fill="#174B71"/>
<path d="M241.577 660.608C241.577 660.608 235.376 667.579 229.963 680.482C224.577 693.381 162.034 839.637 162.034 839.637L122.924 750.175C102.974 793.131 81.1691 839.637 81.1691 839.637L13.4943 680.482C13.4943 680.482 9.98672 671.612 0 660.84H35.6031C35.6031 660.84 29.4021 665.679 35.6031 680.482C41.8041 695.256 87.37 811.402 87.37 811.402L119.264 741.809L94.1052 684.228C94.1052 684.228 88.7186 670.314 77.6633 660.608H108.108C108.108 660.608 108.463 669.708 111.437 676.476L117.078 687.881C121.5 698.221 130.038 718.317 130.038 718.317L145.945 683.62C145.971 683.547 146.022 683.494 146.048 683.418C146.379 682.733 146.683 682.076 146.963 681.416C146.988 681.365 147.014 681.317 147.04 681.241C149.224 675.916 149.352 672.19 149.352 671.407V671.252V660.838C149.352 660.306 166.074 660.838 166.074 660.838C166.074 660.838 158.807 669.177 155.019 679.67C153.749 683.217 144.881 702.705 133.697 726.906L168.513 808.714L225.109 675.914C225.109 675.914 229.709 664.132 226.201 660.607H241.577V660.608Z" fill="white"/>
<path d="M275.764 766.699L305.477 686.836L304.235 690.181L337.238 766.697H275.764V766.699ZM357.914 836.049L395.123 835.355C395.123 835.355 375.99 820.424 372.336 799.846L313.037 654.281L311.919 659.148L248.881 820.422C248.881 820.422 245.438 831.416 238.258 836.049H257.263C257.263 836.049 253.82 825.159 257.961 815.072C261.655 806.124 270.946 779.986 272.953 774.342H340.489L357.383 813.977C357.383 813.977 366.146 831.376 357.912 836.049H357.914Z" fill="white"/>
<path d="M439.691 659.882C439.691 659.882 448.318 662.572 447.508 680.314C447.508 680.314 448.964 816.889 447.561 819.578C446.161 822.268 448.318 831.209 437.803 836.012H550.762L555.885 816.352C555.885 816.352 553.188 826.567 527.846 829.525L468.806 830.333V679.239C468.806 679.239 470.422 660.282 477.903 659.882C485.385 659.479 439.689 659.882 439.689 659.882H439.691Z" fill="white"/>
<path d="M676.401 830.489C635.462 829.438 607.924 794.329 605.767 746.339C602.492 702.611 636.565 661.794 676.265 663.398C721.152 665.212 751.394 700.5 751.076 747.684C751.407 810.596 718.188 831.564 676.399 830.489H676.401ZM674.243 657.754C674.243 657.754 592.154 655.862 585.684 747.746C585.684 747.746 580.076 830.354 678.314 839.631C678.314 839.631 775.338 840.744 774.936 745.014C774.531 649.284 674.243 657.754 674.243 657.754Z" fill="white"/>
<path d="M968.804 676.008V801.651L968.868 801.735V837.013L838.065 679.107C838.085 693.216 838.232 810.118 838.065 819.975C837.855 830.462 846.956 836.109 846.956 836.109H821.887C832.593 831.179 832.805 819.68 832.805 819.68V672.77L821.887 659.586H851.814L963.507 795.232C963.483 757.052 963.4 683.424 963.551 675.718C963.761 665.228 954.658 659.586 954.658 659.586H979.725C969.016 664.513 968.806 676.012 968.806 676.012L968.804 676.008Z" fill="white"/>
<path d="M1268.51 673.483C1268.51 682.528 1268.63 748.545 1268.68 774.421C1268.7 785.964 1265.89 797.381 1260.16 807.412C1251.75 822.141 1235.59 838.695 1205.4 839.033C1150.81 839.644 1137.87 801.651 1135.86 774.169C1135.84 772.317 1135.84 770.445 1135.82 768.549V768.505C1135.48 726.511 1134.72 676.642 1134.72 676.642C1134.72 676.642 1134.72 664.573 1126.08 659.586H1164.9C1164.9 659.586 1154.93 664.009 1155.73 675.297V773.771C1155.73 773.771 1153.24 828.148 1200.15 830.971C1232.41 832.911 1247.17 818.079 1254.62 803.308C1259.09 794.469 1261.22 784.643 1261.33 774.749L1262.4 675.516C1262.42 674.094 1262.25 672.691 1261.87 671.319C1260.92 667.887 1258.59 661.726 1253.74 659.588H1278.2C1278.2 659.588 1268.51 662.199 1268.51 673.487V673.483Z" fill="white"/>
<path d="M1135.83 774.225C1135.66 772.012 1135.66 770.14 1135.78 768.602C1135.8 770.497 1135.8 772.373 1135.83 774.225Z" fill="white"/>
<path d="M1335.06 808.841C1335.06 808.841 1335.02 809.264 1335.01 810.337C1334.99 814.397 1334.04 826.524 1323.56 834.869L1346.87 833.792C1346.87 833.792 1340.27 832.181 1340.4 808.656C1340.54 785.132 1351.46 683.909 1351.46 683.909L1414.81 836.078L1479.78 685.252L1492.73 825.955C1492.92 828.061 1492.47 830.168 1491.46 832.027C1490.64 833.535 1489.55 835.193 1488.41 836.08H1524C1524 836.08 1515.1 839.038 1512.94 805.702L1501.35 679.877C1501.35 679.877 1496.5 661.343 1512.68 659.586H1484.64L1423.78 803.817L1363.86 659.586H1334.75C1334.75 659.586 1346.34 660.787 1344.72 679.877C1343.1 698.967 1335.07 808.841 1335.07 808.841H1335.06Z" fill="white"/>
<path d="M1069.45 832.739C1071.61 834.719 1074.33 836.447 1077.6 837.015H1028.27C1031.55 836.447 1034.27 834.719 1036.45 832.739C1040.29 829.201 1042.36 824.145 1042.36 818.924V675.295C1043.16 664.007 1027.66 659.586 1027.66 659.586H1078.21C1078.21 659.586 1062.71 664.009 1063.52 675.295V818.924C1063.52 824.145 1065.59 829.201 1069.45 832.739H1069.45Z" fill="white"/>
<path d="M1024.48 914.133C1024.48 914.133 1032 916.478 1031.29 931.952C1031.29 931.952 1032.56 1051.07 1031.34 1053.41C1030.12 1055.76 1032 1063.55 1022.83 1067.74H1121.34L1125.81 1050.6C1125.81 1050.6 1123.46 1059.5 1101.36 1062.09L1049.87 1062.79V931.014C1049.87 931.014 1051.28 914.485 1057.8 914.133C1064.33 913.781 1024.48 914.133 1024.48 914.133Z" fill="white"/>
<path d="M388.158 930.634H385.578C385.578 930.634 384.246 921.211 367.784 921.211H335.279L335.425 1058.15C335.425 1058.15 335.425 1066.24 344.599 1067.63L302.497 1068.66C302.497 1068.66 313.827 1065.08 315.177 1058.38C316.529 1051.68 314.374 930.782 314.374 930.782L314.206 921.209H282.249C265.787 921.209 264.433 930.632 264.433 930.632H261.877L264.433 914.088L325.005 913.141L385.577 914.088L388.157 930.632L388.158 930.634Z" fill="white"/>
<path d="M879.381 930.634H876.801C876.801 930.634 875.469 921.211 859.005 921.211H826.502L826.65 1058.15C826.65 1058.15 826.65 1066.24 835.822 1067.63L793.722 1068.66C793.722 1068.66 805.052 1065.08 806.404 1058.38C807.756 1051.68 805.6 930.782 805.6 930.782L805.43 921.209H773.476C757.014 921.209 755.658 930.632 755.658 930.632H753.102L755.658 914.088L816.229 913.141L876.801 914.088L879.381 930.632V930.634Z" fill="white"/>
<path d="M676.072 1049.74C676.072 1049.74 660.263 1025.33 641.58 997.276C621.314 1027.04 602.418 1054.86 602.418 1054.86C602.418 1054.86 596.479 1061.03 599.163 1066.95H580.291C580.291 1066.95 589.462 1064.53 600.243 1046.24L637.946 991.86C614.994 957.548 589.021 919.906 582.721 915.477H616.178C616.178 915.477 607.258 921.674 616.178 931.073C616.178 931.073 630.318 952.149 647.797 977.673L680.661 930.274C680.661 930.274 687.675 918.975 682.268 914.93H702.238C702.238 914.93 695.224 919.778 690.088 926.502C687.803 929.496 670.219 955.229 651.369 982.88C676.963 1020.16 707.967 1064.26 712.764 1066.43H680.111C680.111 1066.43 686.601 1064.26 676.074 1049.74H676.072Z" fill="white"/>
<path d="M1262.09 1052.22L1259.47 1066.59L1195.26 1067.26V1067.6H1175.82V1067.47L1164.22 1067.6C1170.07 1064.95 1175.82 1060.4 1175.82 1060.4V921.223C1175.82 921.223 1170.07 916.692 1164.22 914.039L1259.47 915.03L1262.09 929.425C1262.09 929.425 1260.04 925.02 1253.66 922.194C1252.16 921.522 1250.53 921.223 1248.88 921.223H1195.26V984.054L1238.23 983.906C1245.78 983.442 1246.24 978.003 1246.24 978.003H1249.35V998.637H1247.25C1245.78 993.539 1241.19 992.186 1239.98 992.062C1238.9 991.936 1204.12 992.018 1195.26 992.062V1060.39H1248.88C1250.53 1060.39 1252.16 1060.09 1253.66 1059.44C1260.04 1056.6 1262.09 1052.21 1262.09 1052.21L1262.09 1052.22Z" fill="white"/>
<path d="M528.927 1052.22L526.307 1066.59L462.1 1067.26V1067.6H442.653V1067.47L431.053 1067.6C436.904 1064.94 442.653 1060.39 442.653 1060.39V921.223C442.653 921.223 436.904 916.692 431.053 914.039L526.305 915.026L528.925 929.421C528.925 929.421 526.874 925.017 520.494 922.19C518.992 921.519 517.365 921.223 515.717 921.223H462.1V984.052L505.066 983.904C512.612 983.44 513.076 978.005 513.076 978.005H516.181V998.637H514.09C512.611 993.538 508.024 992.186 506.818 992.062C505.741 991.936 470.952 992.018 462.098 992.062V1060.39H515.715C517.363 1060.39 518.99 1060.09 520.492 1059.45C526.872 1056.6 528.924 1052.21 528.924 1052.21L528.927 1052.22Z" fill="white"/>
<path d="M960.18 1066.07C962.284 1067.79 964.944 1069.28 968.143 1069.77H919.97C923.166 1069.28 925.825 1067.79 927.947 1066.07C931.704 1063 933.724 1058.62 933.724 1054.1V929.622C934.507 919.843 919.371 916.008 919.371 916.008H968.741C968.741 916.008 953.605 919.843 954.389 929.622V1054.1C954.389 1058.62 956.412 1063 960.183 1066.07H960.18Z" fill="white"/>
<path d="M354.973 1191.7V1216.5H363.126C367.146 1216.5 370.433 1215.33 372.989 1213C375.543 1210.67 376.82 1207.63 376.82 1203.89C376.82 1199.4 375.241 1196.17 372.09 1194.22C369.373 1192.54 365.326 1191.7 359.945 1191.7H354.971L354.973 1191.7ZM354.973 1167.15V1188.53H358.547C360.872 1188.53 362.794 1188.43 364.31 1188.25C365.825 1188.06 367.368 1187.61 368.938 1186.9C373.106 1185.06 375.19 1181.78 375.19 1177.07C375.19 1173.44 374.026 1170.88 371.699 1169.38C369.371 1167.89 365.931 1167.15 361.388 1167.15H354.973ZM347.799 1219.5V1164.14H364.186C370.433 1164.14 375.027 1164.98 377.96 1166.66C380.895 1168.34 382.364 1171.24 382.364 1175.36C382.364 1178.99 381.155 1182.07 378.736 1184.59C376.317 1187.11 373.234 1188.83 369.483 1189.75C373.234 1189.75 376.495 1190.7 379.267 1192.6C382.69 1194.92 384.403 1198.23 384.403 1202.51C384.403 1208.31 381.956 1212.89 377.067 1216.25C374.947 1217.72 372.202 1218.66 368.834 1219.1C366.768 1219.37 363.778 1219.5 359.864 1219.5H347.801L347.799 1219.5Z" fill="white" fill-opacity="0.5"/>
<path d="M461.603 1191.43C461.603 1187.75 461.25 1184.49 460.544 1181.65C459.837 1178.81 458.478 1176.11 456.467 1173.57C454.454 1171.03 451.97 1169.08 449.009 1167.72C446.045 1166.37 442.881 1165.69 439.511 1165.69C432.391 1165.69 426.779 1168.17 422.677 1173.12C418.573 1178.07 416.522 1184.69 416.522 1192.96C416.522 1200.92 418.694 1207.17 423.045 1211.72C427.118 1215.94 432.364 1218.05 438.777 1218.05C446.44 1218.05 452.389 1214.75 456.628 1208.15C459.942 1203 461.601 1197.43 461.601 1191.42L461.603 1191.43ZM438.534 1220.73C429.46 1220.73 422.191 1218.12 416.727 1212.9C411.265 1207.67 408.537 1200.7 408.537 1191.99C408.537 1183.28 411.445 1176.22 417.259 1170.8C422.855 1165.61 430.002 1163.01 438.699 1163.01C447.176 1163.01 454.24 1165.2 459.892 1169.59C466.361 1174.62 469.595 1181.68 469.595 1190.77C469.595 1199.76 466.714 1207 460.952 1212.49C455.194 1217.98 447.719 1220.73 438.534 1220.73Z" fill="white" fill-opacity="0.5"/>
<path d="M544.778 1164.16V1219.85L542.332 1219.85L538.054 1214.84L502.877 1175.95H502.061V1219.76L499.78 1219.52L497.498 1219.85V1164.16L500.698 1164.14L539.355 1206.06L540.215 1206.03V1164.16L542.497 1164.4L544.778 1164.16Z" fill="white" fill-opacity="0.5"/>
<path d="M584.44 1167.39V1215.84C586.07 1215.84 588.244 1215.88 590.961 1215.97C593.678 1216.05 595.065 1216.09 595.118 1216.09C598.216 1216.09 600.745 1215.95 602.701 1215.68C604.659 1215.41 606.53 1214.82 608.325 1213.9C612.455 1211.84 615.5 1208.64 617.458 1204.3C619.196 1200.46 620.065 1195.88 620.065 1190.56C620.065 1182 618.149 1175.95 614.316 1172.4C610.486 1168.84 603.95 1167.07 594.712 1167.07C593.57 1167.07 591.64 1167.13 588.925 1167.23C586.206 1167.34 584.711 1167.4 584.44 1167.4V1167.39ZM577.266 1219.5V1164.14H595.772H601.314C606.422 1164.14 610.307 1164.58 612.971 1165.44C615.2 1166.15 617.319 1167.34 619.329 1169.02C622.264 1171.4 624.453 1174.38 625.893 1177.96C627.331 1181.54 628.052 1185.33 628.052 1189.34C628.052 1194.71 627.099 1199.45 625.199 1203.57C623.512 1207.2 621.042 1210.45 617.781 1213.32C615.443 1215.33 612.523 1216.86 609.017 1217.92C605.513 1218.97 600.227 1219.5 593.164 1219.5H577.266Z" fill="white" fill-opacity="0.5"/>
<path d="M744.242 1191.43C744.242 1187.75 743.889 1184.49 743.18 1181.65C742.474 1178.81 741.115 1176.11 739.104 1173.57C737.091 1171.03 734.606 1169.08 731.646 1167.72C728.682 1166.37 725.518 1165.69 722.149 1165.69C715.028 1165.69 709.416 1168.17 705.316 1173.12C701.212 1178.07 699.161 1184.69 699.161 1192.96C699.161 1200.92 701.334 1207.17 705.683 1211.72C709.756 1215.94 715.002 1218.05 721.417 1218.05C729.079 1218.05 735.029 1214.75 739.268 1208.15C742.582 1203 744.242 1197.43 744.242 1191.42V1191.43ZM721.17 1220.73C712.097 1220.73 704.827 1218.12 699.364 1212.9C693.902 1207.67 691.172 1200.7 691.172 1191.99C691.172 1183.28 694.079 1176.22 699.894 1170.8C705.49 1165.61 712.637 1163.01 721.333 1163.01C729.81 1163.01 736.875 1165.2 742.527 1169.59C748.995 1174.62 752.23 1181.68 752.23 1190.77C752.23 1199.76 749.348 1207 743.587 1212.49C737.828 1217.98 730.354 1220.73 721.169 1220.73H721.17Z" fill="white" fill-opacity="0.5"/>
<path d="M779.15 1219.83V1164.14H808.088L807.844 1166.48L808.088 1168.86C806.459 1168.53 805.125 1168.3 804.095 1168.17C803.058 1168.03 801.947 1167.96 800.751 1167.96H792.601H786.323V1188.37H798.959C799.991 1188.37 801.362 1188.31 803.074 1188.21C804.787 1188.1 805.833 1188.04 806.216 1188.04L805.969 1190.16L806.216 1192.43C805.235 1192.43 803.878 1192.35 802.138 1192.19C800.399 1192.03 799.338 1191.95 798.961 1191.95H786.325V1219.75L782.737 1219.5L779.15 1219.83Z" fill="white" fill-opacity="0.5"/>
<path d="M894.611 1168.04V1219.83L891.027 1219.67L887.439 1219.91V1168.04C883.199 1168.04 880.184 1168.09 878.389 1168.2C876.598 1168.31 873.663 1168.58 869.586 1169.02L869.829 1166.58L869.586 1164.14H911.65L911.403 1166.58L911.65 1169.02C909.639 1168.8 907.097 1168.59 904.029 1168.37C900.957 1168.15 897.821 1168.04 894.613 1168.04L894.611 1168.04Z" fill="white" fill-opacity="0.5"/>
<path d="M944.073 1166.99V1189.5H945.871H948.246C949.443 1189.5 950.565 1189.48 951.598 1189.43C952.636 1189.37 953.648 1189.23 954.625 1189.02C957.679 1188.37 960.193 1187.03 962.154 1185.01C964.121 1182.98 965.098 1180.46 965.098 1177.44C965.098 1171.6 962.099 1168.2 956.098 1167.23C954.952 1167.07 953.536 1166.99 951.845 1166.99H947.831H944.069H944.073ZM936.898 1219.83V1164.14H954.182C960.376 1164.14 964.941 1165.16 967.874 1167.19C970.809 1169.22 972.278 1172.32 972.278 1176.5C972.278 1180.89 970.536 1184.46 967.06 1187.23C964.178 1189.5 960.347 1191.08 955.564 1191.95L972.313 1213.13L976.285 1217.71L977.817 1219.75L973.105 1219.5L968.474 1219.81L963.296 1212.68L953.728 1200.2L947.158 1192.52L944.071 1192.51V1219.75L940.483 1219.5L936.896 1219.83L936.898 1219.83Z" fill="white" fill-opacity="0.5"/>
<path d="M1010.52 1164.14V1195.23C1010.52 1202.7 1011.77 1208.08 1014.27 1211.38C1017.04 1215.06 1021.79 1216.9 1028.53 1216.9C1034.67 1216.9 1039.21 1214.82 1042.15 1210.65C1044.81 1206.86 1046.14 1201.45 1046.14 1194.42V1164.14L1048.42 1164.39L1050.7 1164.14V1196.45C1050.7 1204.3 1048.57 1210.29 1044.31 1214.43C1040.04 1218.58 1034.24 1220.64 1026.9 1220.64C1019.29 1220.64 1013.4 1218.75 1009.21 1214.96C1006.93 1212.9 1005.33 1210.09 1004.4 1206.52C1003.69 1203.81 1003.34 1200.51 1003.34 1196.62V1164.14L1006.93 1164.39L1010.51 1164.14L1010.52 1164.14Z" fill="white" fill-opacity="0.5"/>
<path d="M1080.49 1208.86H1081.3C1083.06 1211.65 1084.86 1213.69 1086.72 1214.98C1088.91 1216.48 1091.53 1217.23 1094.6 1217.23C1097.88 1217.23 1100.6 1216.09 1102.76 1213.78C1104.92 1211.49 1106 1208.68 1106 1205.38C1106 1201.27 1103.8 1198.08 1099.4 1195.81C1095.27 1194.02 1091.16 1192.21 1087.09 1190.37C1082.69 1187.71 1080.49 1183.79 1080.49 1178.6C1080.49 1173.62 1082.28 1169.72 1085.87 1166.91C1089.18 1164.31 1093.42 1163.01 1098.59 1163.01C1100.76 1163.01 1102.88 1163.33 1104.94 1163.99C1107.01 1164.64 1108.77 1165.61 1110.24 1166.91C1109.86 1167.78 1109.54 1168.59 1109.26 1169.35C1109.21 1169.51 1108.8 1170.92 1108.04 1173.58H1107.23C1106.36 1171.3 1105.07 1169.55 1103.35 1168.33C1101.64 1167.11 1099.56 1166.5 1097.12 1166.5C1094.24 1166.5 1091.81 1167.39 1089.82 1169.14C1087.84 1170.9 1086.85 1173.19 1086.85 1176C1086.85 1180.11 1089.04 1183.31 1093.45 1185.58C1097.58 1187.42 1101.71 1189.23 1105.84 1191.02C1110.29 1193.61 1112.52 1197.35 1112.52 1202.22C1112.52 1207.9 1110.57 1212.45 1106.65 1215.86C1102.96 1219.1 1098.2 1220.73 1092.39 1220.73C1090.16 1220.73 1087.72 1220.3 1085.05 1219.44C1082.39 1218.57 1080.41 1217.44 1079.1 1216.05C1079.49 1214.86 1079.77 1213.77 1079.94 1212.77C1080.11 1211.78 1080.29 1210.47 1080.49 1208.86V1208.86Z" fill="white" fill-opacity="0.5"/>
<path d="M1159.16 1168.04V1219.83L1155.57 1219.67L1151.98 1219.91V1168.04C1147.74 1168.04 1144.73 1168.09 1142.93 1168.2C1141.14 1168.31 1138.21 1168.58 1134.13 1169.02L1134.37 1166.58L1134.13 1164.14H1176.19L1175.95 1166.58L1176.19 1169.02C1174.19 1168.8 1171.64 1168.59 1168.57 1168.37C1165.5 1168.15 1162.37 1168.04 1159.16 1168.04V1168.04Z" fill="white" fill-opacity="0.5"/>
</svg>
