<svg width="50" height="50" viewBox="0 0 50 50" fill="none" xmlns="http://www.w3.org/2000/svg">
<path d="M25.4113 3C25.4113 3 13.7457 13.7545 25.4113 25.734C25.4113 25.734 37.7296 16.2423 25.4113 3Z" fill="#F37F0C"/>
<path d="M26.6645 46.0336C26.6645 46.0336 25.59 38.8382 27.8924 32.4082C30.1948 25.9782 33.3672 21.8956 37.4601 19.2421C41.5536 16.5884 45.9539 15.3636 48 15.3125C48 15.3125 47.8466 20.9003 44.5719 25.7102C41.2973 30.5199 35.9253 34.7558 35.9253 34.7558C35.9253 34.7558 27.9436 42.2062 26.6645 46.0336Z" fill="#174B71"/>
<path d="M24.3355 46.0336C24.3355 46.0336 25.41 38.8382 23.1076 32.4082C20.8052 25.9782 17.6328 21.8956 13.5399 19.2421C9.44643 16.5884 5.04674 15.3636 3 15.3125C3 15.3125 3.15341 20.9003 6.42746 25.7102C9.70212 30.5199 15.0747 34.7558 15.0747 34.7558C15.0747 34.7558 23.0564 42.2062 24.3355 46.0336Z" fill="#174B71"/>
</svg>
