<svg width="50" height="50" viewBox="0 0 50 50" fill="none" xmlns="http://www.w3.org/2000/svg">
<g clip-path="url(#clip0_5584_5581)">
<path d="M25.0847 17.4441C25.7729 17.4441 26.3302 16.8865 26.3302 16.1986C26.3302 15.5108 25.7729 14.9531 25.0847 14.9531C19.582 14.9531 15.1211 19.4141 15.1211 24.9171C15.1211 30.4198 19.582 34.8808 25.0847 34.8808C30.5878 34.8808 35.0487 30.4198 35.0487 24.9171C35.0487 24.229 34.491 23.6717 33.8032 23.6717C33.1154 23.6717 32.5577 24.229 32.5577 24.9171C32.5577 29.0442 29.2122 32.3901 25.0847 32.3901C20.9576 32.3901 17.6117 29.0442 17.6117 24.9171C17.6117 20.7896 20.9576 17.4441 25.0847 17.4441Z" fill="white"/>
<path d="M48.8475 17.519C48.6311 16.8655 47.9263 16.5112 47.2724 16.7274C46.6338 16.9387 46.2782 17.6185 46.4686 18.2635C50.1932 30.1247 43.5977 42.7592 31.7366 46.4839C19.876 50.2085 7.24137 43.613 3.51677 31.752C-0.208319 19.891 6.38766 7.25634 18.2483 3.53164C22.6387 2.15301 27.3462 2.15301 31.7366 3.53164C32.3958 3.73037 33.0912 3.35732 33.2901 2.69815C33.4858 2.04883 33.1268 1.3626 32.4817 1.15284C19.3115 -2.97928 5.28483 4.34765 1.15281 17.5182C-2.97931 30.6884 4.34792 44.7151 17.5182 48.8471C30.6888 52.9792 44.715 45.6523 48.8471 32.4817C50.3751 27.6112 50.3753 22.3896 48.8474 17.519H48.8475Z" fill="white"/>
<path d="M27.457 8.89482C27.4635 8.18564 26.9187 7.59287 26.2115 7.53984C25.8396 7.5082 25.4673 7.47656 25.0854 7.47656C15.4552 7.47656 7.64844 15.2833 7.64844 24.9135C7.64844 34.5434 15.4552 42.3501 25.0854 42.3501C34.7152 42.3501 42.522 34.5434 42.522 24.9136C42.522 24.463 42.4945 24.0129 42.4393 23.5658C42.3396 22.8822 41.7049 22.4088 41.0213 22.5084C40.3377 22.6075 39.8643 23.2428 39.9635 23.9264C39.9673 23.9522 39.9719 23.9777 39.9772 24.0037C40.0043 24.3055 40.031 24.6045 40.031 24.9128C40.0313 33.1674 33.34 39.8587 25.0857 39.8595C16.8312 39.8599 10.1397 33.1681 10.1395 24.9139C10.1391 16.6597 16.83 9.96787 25.0847 9.96758H25.085C25.394 9.96758 25.6934 9.99424 25.9944 10.0209L26.2278 10.0404C26.8787 10.0683 27.4287 9.56318 27.4563 8.9124C27.4566 8.90625 27.4566 8.90059 27.457 8.89482Z" fill="white"/>
<path d="M32.5579 11.2181V15.6844L24.2044 24.0378C23.7097 24.5157 23.696 25.3043 24.1739 25.799C24.6519 26.2938 25.4405 26.3075 25.9352 25.8296C25.9455 25.8196 25.9558 25.8094 25.9657 25.799L34.3192 17.4456H38.7853C39.1157 17.4456 39.4323 17.3144 39.6662 17.0806L47.1389 9.60752C47.6252 9.12119 47.6252 8.33272 47.1389 7.84629C47.0232 7.73067 46.886 7.63895 46.7349 7.57639C46.5838 7.51382 46.4219 7.48163 46.2584 7.48164H42.5219V3.74512C42.5219 3.05732 41.9643 2.49961 41.276 2.5C40.9459 2.50008 40.6294 2.63124 40.396 2.86465L32.9229 10.3377C32.8072 10.4532 32.7154 10.5905 32.6528 10.7415C32.5901 10.8926 32.5579 11.0545 32.5579 11.2181ZM35.0489 11.7339L40.0309 6.75186V8.72715C40.0309 9.41494 40.5886 9.97266 41.2764 9.97266H43.2517L38.2696 14.9546H35.0489V11.7339Z" fill="white"/>
</g>
<defs>
<clipPath id="clip0_5584_5581">
<rect width="50" height="50" fill="white"/>
</clipPath>
</defs>
</svg>
