<svg width="278" height="188" viewBox="0 0 278 188" fill="none" xmlns="http://www.w3.org/2000/svg">
    <path
        d="M60.9 70.6C67 63.3 70.1 53.2 70.1 40.3C70.1 27.6 67.1 17.7 61.1 10.6C55.1 3.50001 46.6 0 35.6 0C28.4 0 22.1 1.59999 16.8 4.79999C11.5 7.99999 7.39999 12.7 4.39999 18.8C1.49999 25 0 32.2 0 40.4C0 48.7 1.3 56 4 62.2C6.7 68.4 10.6 73.2 15.7 76.5C20.9 79.8 27.2 81.5 34.7 81.5C46 81.5 54.7 77.9 60.9 70.6ZM21.3 61.3C18.1 56.3 16.4 49.3 16.4 40.4C16.4 31.6 18 24.7 21.3 20C24.5 15.2 29.3 12.8 35.5 12.8C41.4 12.8 46 15.2 49.1 20C52.2 24.8 53.8 31.6 53.8 40.4C53.8 49.4 52.2 56.4 49 61.3C45.8 66.3 41.2 68.8 35.2 68.8C29.1 68.8 24.5 66.3 21.3 61.3Z"
        fill="white" />
    <path
        d="M133.998 77.6C133.998 77 134.098 76.3 134.098 75.4C134.098 72.8 133.298 70.7 131.598 69.3C129.898 67.9 127.598 67.1 124.498 67.1H99.7984V45.6H124.298V33.2H99.7984V14H122.498C125.998 14 128.598 13.4 130.098 12.1C131.598 10.9 132.398 8.79999 132.398 5.79999C132.398 4.09999 132.298 2.7 132.098 1.5H83.8984V79.5H133.998C133.898 78.8 133.998 78.2 133.998 77.6Z"
        fill="white" />
    <path
        d="M160.999 40.0016C159.499 44.4016 163.199 48.2015 166.699 52.7015L183.699 74.8015C186.799 78.8015 190.899 80.9016 196.099 80.9016C199.199 80.9016 202.199 80.0015 205.199 78.2015L176.399 39.0016L201.899 4.70154C200.799 3.60154 199.499 2.80156 197.799 2.10156C196.099 1.50156 194.399 1.20154 192.499 1.20154C190.299 1.20154 188.399 1.70154 186.699 2.70154C184.999 3.70154 183.199 5.30156 181.599 7.50156L165.799 28.4016C164.299 30.4016 163.099 32.2015 162.399 33.8015C161.699 35.4015 160.499 37.4016 161.099 38.6016V10.2015C161.099 4.20154 157.699 1.10156 150.799 1.10156C149.599 1.10156 147.699 1.30154 145.199 1.70154V79.5016H160.999V40.0016Z"
        fill="white" />
    <path
        d="M268.1 10.6C262.1 3.50001 253.6 0 242.6 0C235.4 0 229.1 1.59999 223.8 4.79999C218.5 7.99999 214.4 12.7 211.4 18.8C208.5 25 207 32.2 207 40.4C207 48.7 208.3 56 211 62.2C213.7 68.4 217.6 73.2 222.7 76.5C227.9 79.8 234.2 81.5 241.7 81.5C253 81.5 261.8 77.9 267.9 70.6C274 63.3 277.1 53.2 277.1 40.3C277 27.6 274.1 17.7 268.1 10.6ZM255.9 61.4C252.7 66.4 248.1 68.9 242.1 68.9C236.1 68.9 231.5 66.4 228.2 61.4C225 56.4 223.3 49.4 223.3 40.5C223.3 31.7 224.9 24.8 228.2 20.1C231.4 15.3 236.2 12.9 242.4 12.9C248.3 12.9 252.9 15.3 256 20.1C259.1 24.9 260.7 31.7 260.7 40.5C260.7 49.4 259.1 56.4 255.9 61.4Z"
        fill="white" />
    <path
        d="M249.301 107.398C238.501 107.398 229.801 116.198 229.801 127.098C229.801 137.998 238.601 146.798 249.301 146.798C260.101 146.798 268.901 137.998 268.901 127.098C268.901 116.198 260.101 107.398 249.301 107.398ZM249.301 142.198C241.001 142.198 234.301 135.398 234.301 127.098C234.301 118.798 241.001 111.998 249.301 111.998C257.601 111.998 264.301 118.798 264.301 127.098C264.401 135.398 257.601 142.198 249.301 142.198Z"
        fill="white" />
    <path
        d="M254.202 127.401C254.602 127.101 255.002 126.701 255.402 126.201C255.802 125.701 256.002 125.201 256.202 124.601C256.402 124.001 256.502 123.301 256.502 122.501C256.502 120.601 255.902 119.201 254.602 118.201C253.302 117.301 251.302 116.801 248.502 116.801C247.802 116.801 247.002 116.801 246.102 116.901C245.202 117.001 244.302 117.001 243.402 117.101V136.301H247.402V129.001H249.002L252.302 134.601C252.702 135.301 253.102 135.801 253.602 136.101C254.102 136.401 254.702 136.601 255.402 136.601C255.802 136.601 256.102 136.501 256.602 136.501C257.002 136.401 257.402 136.301 257.702 136.101L252.902 128.101C253.302 128.001 253.802 127.701 254.202 127.401ZM251.402 125.501C250.702 126.001 249.802 126.301 248.702 126.301H247.402V119.601C247.602 119.601 247.802 119.601 248.002 119.501C248.302 119.501 248.502 119.501 248.902 119.501C250.002 119.501 250.802 119.701 251.502 120.201C252.102 120.701 252.402 121.501 252.402 122.701C252.402 124.101 252.002 124.901 251.402 125.501Z"
        fill="white" />
    <path
        d="M39.3023 107.898C36.3023 107.898 33.9024 108.698 32.1024 110.198C30.3024 111.698 29.4023 113.798 29.4023 116.298C29.4023 117.998 29.5024 119.598 29.7024 120.998H53.9023V185.898H69.9023V120.998H84.5023C87.5023 120.998 89.8023 120.298 91.5023 118.798C93.2023 117.398 94.0023 115.398 94.0023 112.898C94.0023 111.198 93.9024 109.498 93.7024 107.898H39.3023Z"
        fill="white" />
    <path
        d="M144 173.498H119.3V151.998H143.8V139.598H119.3V120.398H142.1C145.6 120.398 148.2 119.798 149.7 118.498C151.2 117.298 152 115.198 152 112.198C152 110.498 151.9 109.098 151.7 107.898H103.5V185.898H153.6C153.7 185.198 153.7 184.598 153.8 183.998C153.8 183.398 153.9 182.698 153.9 181.798C153.9 179.198 153.1 177.098 151.4 175.698C149.4 174.198 147.1 173.498 144 173.498Z"
        fill="white" />
    <path
        d="M224.3 109.698C221.4 108.198 218.6 107.398 215.9 107.398C213.4 107.398 211.4 107.898 209.8 108.898C208.2 109.898 206.7 111.698 205.1 114.398L193.7 134.198L182.5 113.098C180.6 109.298 177.5 107.398 173.2 107.398C170.4 107.398 167 108.298 163.1 109.998L183.4 146.998L160.5 185.898H177.8L192.6 160.198L204.5 180.098C206 182.698 207.7 184.598 209.4 185.598C211.1 186.598 213.4 187.198 216.1 187.198C218.9 187.198 222 186.598 225.2 185.498L202.6 146.498L224.3 109.698Z"
        fill="white" />
</svg>