<svg xmlns="http://www.w3.org/2000/svg" version="1.1" xmlns:xlink="http://www.w3.org/1999/xlink" width="512"
    height="512" x="0" y="0" viewBox="0 0 512 512" style="enable-background:new 0 0 512 512" xml:space="preserve"
    class="">
    <g>
        <path
            d="M109.479 271.676a7.493 7.493 0 0 0-8.242-6.675 7.5 7.5 0 0 0-6.675 8.242C103.105 354.626 174.209 418.45 256 418.45c88.412 0 162.329-73.955 162.329-162.329 0-88.383-73.806-162.329-162.329-162.329-81.776 0-152.893 63.806-161.438 145.207a7.5 7.5 0 0 0 6.675 8.242c4.125.443 7.81-2.555 8.242-6.675 2.064-19.665 7.905-38.064 16.759-54.513h259.337c23.343 42.996 23.349 97.131 0 140.137H126.238c-8.855-16.45-14.695-34.849-16.759-54.514zm139.022-161.997v61.374h-49.402c11.764-34.306 29.887-56.748 49.402-61.374zm14.998 0c19.515 4.626 37.637 27.068 49.402 61.374h-49.402zm-50.235 5.364c-12.128 13.224-22.432 32.248-29.96 56.01H135.52c18.748-26.574 46.033-46.477 77.744-56.01zm115.431 56.01c-7.51-23.707-17.784-42.697-29.875-55.918 31.589 9.613 58.713 29.574 77.407 55.918zm-65.196 231.509v-61.374h49.402c-11.764 34.305-29.887 56.748-49.402 61.374zm-14.998 0c-19.515-4.626-37.637-27.068-49.402-61.374h49.402zm50.319-5.457c12.091-13.221 22.365-32.211 29.875-55.918h47.532c-18.694 26.344-45.818 46.306-77.407 55.918zm-115.515-55.917c7.527 23.762 17.832 42.786 29.96 56.01-31.711-9.533-58.997-29.436-77.744-56.01z"
            fill="#FFF" opacity="1" data-original="#FFF" class=""></path>
        <path
            d="m504.797 236.716-28.546-40.574c-2.993-4.259-4.531-9.247-4.447-14.434l.75-49.616a39.319 39.319 0 0 0-26.681-37.908l-46.948-16.051a24.254 24.254 0 0 1-12.08-9.068l-28.547-40.566A39.344 39.344 0 0 0 314.427 13.5L272.98 26.278a7.5 7.5 0 0 0 4.419 14.333l41.445-12.777a24.384 24.384 0 0 1 27.188 9.297l28.546 40.565c4.824 6.862 11.567 11.922 19.498 14.632l46.951 16.052a24.359 24.359 0 0 1 16.532 23.486l-.75 49.608c-.136 8.369 2.344 16.423 7.175 23.296l28.547 40.575a24.386 24.386 0 0 1-.436 28.725l-29.764 39.692c-5.032 6.698-7.758 14.673-7.882 23.059l-.76 49.618a24.36 24.36 0 0 1-17.229 22.975l-47.419 14.619c-8.024 2.476-14.916 7.33-19.927 14.026l-29.766 39.684a24.389 24.389 0 0 1-27.464 8.466l-46.947-16.049c-7.92-2.706-16.343-2.836-24.364-.371l-47.414 14.618a24.378 24.378 0 0 1-27.188-9.297l-28.546-40.565c-4.824-6.862-11.567-11.922-19.498-14.632l-46.951-16.052a24.359 24.359 0 0 1-16.532-23.486l.75-49.608c.136-8.369-2.344-16.423-7.175-23.296l-28.547-40.575a24.386 24.386 0 0 1 .436-28.725L49.67 198.48c5.032-6.698 7.758-14.673 7.882-23.059l.76-49.618a24.36 24.36 0 0 1 17.229-22.975l47.419-14.619c8.024-2.476 14.916-7.33 19.927-14.026l29.766-39.684a24.391 24.391 0 0 1 27.465-8.466l39.967 13.659a7.499 7.499 0 0 0 9.522-4.671 7.5 7.5 0 0 0-4.672-9.522L204.97 11.84c-16.212-5.541-34.02-.056-44.314 13.656L130.883 65.19c-3.103 4.148-7.372 7.152-12.343 8.686L71.126 88.494c-16.374 5.041-27.55 19.942-27.811 37.079l-.76 49.621a24.211 24.211 0 0 1-4.881 14.28L7.907 229.173a39.348 39.348 0 0 0-.704 46.351l28.546 40.574c2.993 4.259 4.531 9.247 4.447 14.434l-.75 49.616a39.319 39.319 0 0 0 26.681 37.908l46.948 16.051a24.254 24.254 0 0 1 12.08 9.068l28.547 40.566a39.337 39.337 0 0 0 43.871 15.001l47.41-14.617a24.316 24.316 0 0 1 15.1.228L307.03 500.4c15.295 5.228 34.589-.701 44.314-13.656l29.773-39.694c3.103-4.148 7.372-7.152 12.343-8.686l47.414-14.618c16.374-5.041 27.55-19.942 27.811-37.079l.76-49.621a24.211 24.211 0 0 1 4.881-14.28l29.768-39.698a39.351 39.351 0 0 0 .703-46.352z"
            fill="#FFF" opacity="1" data-original="#FFF" class=""></path>
        <path
            d="M442.07 247.253a7.499 7.499 0 0 0 6.818-8.123c-4.194-48.007-26.136-92.537-61.785-125.387C351.24 80.694 304.679 62.494 256 62.494c-106.766 0-193.627 86.86-193.627 193.626S149.234 449.747 256 449.747c98.877 0 184.275-78.028 192.889-176.635a7.499 7.499 0 0 0-6.818-8.123 7.495 7.495 0 0 0-8.124 6.819c-7.982 91.367-86.145 162.94-177.947 162.94-98.496 0-178.628-80.132-178.628-178.627S157.504 77.493 256 77.493c91.802 0 169.965 71.572 177.946 162.941.361 4.127 3.993 7.186 8.124 6.819z"
            fill="#FFF" opacity="1" data-original="#FFF" class=""></path>
        <path
            d="M167.067 294.946v-77.651a7.5 7.5 0 0 0-14.998 0v77.651a7.5 7.5 0 0 0 14.998 0zM220.258 287.446c-8.33 0-16.368-3.383-21.502-9.047a7.5 7.5 0 0 0-11.114 10.072c7.929 8.75 20.123 13.975 32.616 13.975 15.047 0 28.16-9.892 30.502-23.01 1.776-9.948-2.851-22.984-21.164-29.738-9.897-3.651-19.084-7.635-21.51-8.7-2.271-1.693-3.371-4.378-2.955-7.281.535-3.726 3.423-6.725 7.724-8.021 12.117-3.65 23.122 5.119 23.404 5.346a7.501 7.501 0 0 0 10.538-.938 7.5 7.5 0 0 0-.915-10.567c-.695-.585-17.265-14.258-37.353-8.203-9.888 2.979-16.879 10.739-18.244 20.252-1.273 8.872 2.57 17.405 10.031 22.269.331.216.679.405 1.04.566.447.199 11.075 4.929 23.05 9.347 8.298 3.061 12.522 7.81 11.59 13.03-.935 5.235-7.077 10.648-15.738 10.648zM359.932 256.12c0-25.544-20.781-46.325-46.324-46.325s-46.324 20.781-46.324 46.325 20.781 46.325 46.324 46.325 46.324-20.781 46.324-46.325zm-77.65 0c0-17.273 14.053-31.326 31.325-31.326s31.326 14.053 31.326 31.326-14.053 31.326-31.326 31.326-31.325-14.052-31.325-31.326z"
            fill="#FFF" opacity="1" data-original="#FFF" class=""></path>
    </g>
</svg>