<svg width="50" height="50" viewBox="0 0 50 50" fill="none" xmlns="http://www.w3.org/2000/svg">
<g clip-path="url(#clip0_5584_5635)">
<path d="M49.7204 16.0255L43.7704 10.0754C43.6239 9.9289 43.4252 9.8466 43.2181 9.84658H19.4182C19.211 9.8466 19.0123 9.9289 18.8658 10.0754L12.9158 16.0255C12.843 16.0983 12.7854 16.1847 12.7461 16.2798C12.7068 16.3749 12.6867 16.4769 12.687 16.5798C12.6872 16.6827 12.7078 16.7846 12.7475 16.8795C12.7872 16.9744 12.8453 17.0606 12.9185 17.133L30.8545 34.8967C31.0007 35.0418 31.1983 35.1231 31.4043 35.1229C31.5069 35.123 31.6085 35.1029 31.7033 35.0636C31.7981 35.0243 31.8842 34.9667 31.9566 34.894L49.7203 17.1304C49.7929 17.0578 49.8504 16.9717 49.8897 16.8769C49.929 16.7821 49.9492 16.6805 49.9492 16.5779C49.9492 16.4754 49.929 16.3738 49.8898 16.279C49.8505 16.1842 49.793 16.098 49.7204 16.0255ZM36.1842 17.3591L31.3256 31.9349L26.4531 17.3591H36.1842ZM27.2543 15.7966L31.3183 11.7326L35.3821 15.7966H27.2543ZM33.2042 11.4091H41.3319L37.2681 15.473L33.2042 11.4091ZM25.3683 15.473L21.3044 11.4091H29.4322L25.3683 15.473ZM24.8057 17.3591L29.477 31.3331L15.3674 17.3591H24.8057ZM37.8312 17.3591H47.2819L33.1058 31.5353L37.8312 17.3591ZM39.1541 15.7966L43.218 11.7326L47.2818 15.7966H39.1541ZM19.4183 11.7327L23.4821 15.7967H15.3544L19.4183 11.7327ZM30.5369 6.89326V1.05469C30.5369 0.847487 30.6192 0.648773 30.7657 0.50226C30.9123 0.355748 31.111 0.273438 31.3182 0.273438C31.5254 0.273438 31.7241 0.355748 31.8706 0.50226C32.0171 0.648773 32.0994 0.847487 32.0994 1.05469V6.89326C32.0994 7.10046 32.0171 7.29918 31.8706 7.44569C31.7241 7.5922 31.5254 7.67451 31.3182 7.67451C31.111 7.67451 30.9123 7.5922 30.7657 7.44569C30.6192 7.29918 30.5369 7.10046 30.5369 6.89326ZM37.0472 7.51855L39.9501 2.80312C40.0606 2.63065 40.2343 2.50845 40.434 2.46282C40.6336 2.41719 40.8432 2.45177 41.0177 2.55914C41.1921 2.6665 41.3174 2.83805 41.3665 3.03687C41.4157 3.23568 41.3849 3.44586 41.2807 3.62217L38.3777 8.3376C38.324 8.42502 38.2536 8.50099 38.1705 8.56117C38.0873 8.62135 37.9932 8.66455 37.8934 8.6883C37.7935 8.71206 37.69 8.7159 37.5887 8.69961C37.4874 8.68332 37.3903 8.64721 37.3029 8.59336C37.2155 8.5396 37.1396 8.46914 37.0795 8.38603C37.0193 8.30291 36.9761 8.20875 36.9524 8.10894C36.9286 8.00913 36.9248 7.90562 36.941 7.80432C36.9573 7.70302 36.9934 7.60591 37.0472 7.51855ZM21.3556 3.62227C21.249 3.44588 21.2164 3.23453 21.265 3.03425C21.3135 2.83397 21.4392 2.66098 21.6147 2.55296C21.7902 2.44493 22.0013 2.41062 22.2019 2.45749C22.4026 2.50437 22.5767 2.62863 22.6861 2.80322L25.5891 7.51865C25.6619 7.63697 25.7019 7.77258 25.7049 7.91151C25.7079 8.05044 25.6738 8.18764 25.6061 8.30899C25.5384 8.43033 25.4395 8.53141 25.3197 8.60181C25.1999 8.67221 25.0635 8.70937 24.9245 8.70947C24.791 8.70964 24.6596 8.67555 24.543 8.61046C24.4264 8.54537 24.3284 8.45146 24.2585 8.3377L21.3556 3.62227ZM46.0756 36.1068C45.0867 35.5359 43.9382 35.3832 42.8417 35.6771L29.8751 39.1513C30.0035 38.4785 29.981 37.7785 29.8004 37.0937C29.4837 35.8928 28.723 34.8897 27.6581 34.2693L16.0344 27.4972C16.0042 27.4796 15.9729 27.464 15.9406 27.4506C14.1398 26.7031 12.3135 26.7016 10.5127 27.4457L6.34111 29.1689V28.465C6.34111 27.6112 5.64648 26.9166 4.79277 26.9166H1.59521C0.741504 26.9166 0.046875 27.6112 0.046875 28.465V45.7654C0.046875 46.6192 0.741504 47.3139 1.59521 47.3139H4.79268C5.64639 47.3139 6.34102 46.6192 6.34102 45.7654V45.0359C8.5334 44.1414 10.3085 44.1973 12.2139 45.2066L18.9545 48.7774C20.1416 49.4062 21.3091 49.7188 22.4863 49.7188C23.0906 49.7188 23.6978 49.6364 24.3111 49.4722L45.0491 43.9157C47.3201 43.3072 48.6727 40.9642 48.0644 38.6929C47.7708 37.5962 47.0646 36.6778 46.0756 36.1068ZM1.60938 45.7515V28.4791H4.77861V45.7515H1.60938ZM44.6449 42.4064L23.9069 47.9629C22.4983 48.3402 21.1176 48.1552 19.686 47.3968L12.9455 43.826C10.7936 42.6859 8.72119 42.5339 6.34121 43.3654V30.8596L11.1094 28.8898C12.5176 28.3079 13.8871 28.3027 15.2944 28.8744L26.8716 35.6194C27.5757 36.0297 28.0793 36.6947 28.2895 37.4921C28.4998 38.2895 28.3896 39.1163 27.9795 39.8204C27.5685 40.5258 26.9036 41.0299 26.1073 41.2398C25.3111 41.4498 24.484 41.3391 23.7786 40.9281L17.5694 37.3106C17.3904 37.2071 17.1777 37.1788 16.9778 37.2318C16.778 37.2849 16.6073 37.415 16.5032 37.5936C16.3991 37.7723 16.3701 37.985 16.4225 38.185C16.475 38.385 16.6046 38.5561 16.7829 38.6607L22.9921 42.2781C23.7061 42.6941 24.5016 42.9068 25.3097 42.9068C25.708 42.9068 26.1095 42.8552 26.5058 42.7507C27.5604 42.4725 28.4627 41.8504 29.0875 40.98L43.2462 37.1864C43.9396 37.0007 44.6669 37.0978 45.2944 37.4601C45.9219 37.8223 46.3696 38.4037 46.5553 39.0971C46.9406 40.5363 46.0837 42.0209 44.6449 42.4064Z" fill="white"/>
</g>
<defs>
<clipPath id="clip0_5584_5635">
<rect width="50" height="50" fill="white"/>
</clipPath>
</defs>
</svg>
