<svg width="50" height="50" viewBox="0 0 50 50" fill="none" xmlns="http://www.w3.org/2000/svg">
<g clip-path="url(#clip0_5584_5630)">
<path d="M49.8717 24.5533C44.6637 16.2446 35.6363 11.1013 25.8333 10.8574V4.16406H24.1666V10.8574C14.3637 11.1013 5.33624 16.2446 0.1282 24.5533C0.0444428 24.6863 0 24.8403 0 24.9975C0 25.1547 0.0444428 25.3086 0.1282 25.4417C5.33624 33.7503 14.3637 38.8937 24.1666 39.1375V45.8309H25.8333V39.1375C35.6363 38.8937 44.6637 33.7503 49.8717 25.4417C49.9555 25.3087 50 25.1547 50 24.9975C50 24.8403 49.9555 24.6863 49.8717 24.5533ZM1.82404 24.9975C5.22622 19.7953 10.2858 15.8948 16.1824 13.9283C14.6284 15.1658 13.3526 16.717 12.4382 18.4807C11.5239 20.2443 10.9915 22.1809 10.8757 24.1641H4.16655V25.8308H10.8757C10.9915 27.8141 11.5239 29.7506 12.4382 31.5143C13.3526 33.278 14.6284 34.8292 16.1824 36.0667C10.2858 34.1002 5.22622 30.1997 1.82404 24.9975ZM24.1666 32.4975V37.455C17.9307 37.0315 12.966 32.0668 12.5424 25.8308H17.4999V24.1641H12.5424C12.966 17.9282 17.9307 12.9635 24.1666 12.5399V17.4975H25.8333V12.5399C32.0693 12.9635 37.034 17.9281 37.4575 24.1641H32.5V25.8308H37.4575C37.034 32.0668 32.0693 37.0315 25.8333 37.455V32.4975H24.1666ZM48.1759 24.9975C44.7737 30.1997 39.7142 34.1002 33.8175 36.0667C35.3716 34.8292 36.6474 33.278 37.5617 31.5143C38.4761 29.7506 39.0085 27.8141 39.1242 25.8308H45.8334V24.1641H39.1242C39.0085 22.1809 38.4761 20.2443 37.5617 18.4807C36.6474 16.717 35.3716 15.1658 33.8175 13.9283C39.7141 15.8948 44.7737 19.7953 48.1759 24.9975Z" fill="white"/>
<path d="M25.0014 19.1641C21.7797 19.1641 19.168 21.7758 19.168 24.9975C19.1717 28.2176 21.7813 30.8272 25.0014 30.8308C28.2231 30.8308 30.8347 28.2192 30.8347 24.9975C30.8347 21.7758 28.2231 19.1641 25.0014 19.1641ZM25.0014 29.1642C22.7002 29.1642 20.8347 27.2986 20.8347 24.9975C20.8374 22.6975 22.7014 20.8335 25.0014 20.8308C27.3025 20.8308 29.1681 22.6963 29.1681 24.9975C29.1681 27.2986 27.3026 29.1642 25.0014 29.1642ZM5.00131 4.16406C4.78029 4.16406 4.56833 4.25186 4.41205 4.40814C4.25577 4.56442 4.16797 4.77638 4.16797 4.9974V11.6641H5.83464V5.83074H11.668V4.16406H5.00131ZM45.0015 4.16406H38.3348V5.83074H44.1681V11.6641H45.8348V4.9974C45.8348 4.77638 45.747 4.56442 45.5907 4.40814C45.4344 4.25186 45.2225 4.16406 45.0015 4.16406ZM44.1681 38.3309V44.1642H38.3348V45.8309H45.0015C45.2225 45.8309 45.4344 45.7431 45.5907 45.5868C45.747 45.4305 45.8348 45.2186 45.8348 44.9976V38.3309H44.1681ZM5.83464 44.1642V38.3309H4.16797V44.9976C4.16797 45.2186 4.25577 45.4305 4.41205 45.5868C4.56833 45.7431 4.78029 45.8309 5.00131 45.8309H11.668V44.1642H5.83464Z" fill="white"/>
</g>
<defs>
<clipPath id="clip0_5584_5630">
<rect width="50" height="50" fill="white"/>
</clipPath>
</defs>
</svg>
